<?xml version="1.0" encoding="UTF-8"?>
<svg id="_レイヤー_1" data-name=" レイヤー 1" xmlns="http://www.w3.org/2000/svg" version="1.1" viewBox="0 0 438.3 458">
  <defs>
    <style>
      .cls-1 {
        stroke-width: 3px;
      }

      .cls-1, .cls-2 {
        stroke: #c9a412;
      }

      .cls-1, .cls-2, .cls-3, .cls-4 {
        stroke-miterlimit: 10;
      }

      .cls-1, .cls-3 {
        fill: none;
      }

      .cls-2 {
        fill: #c9a412;
      }

      .cls-2, .cls-4 {
        stroke-width: 4px;
      }

      .cls-5 {
        fill: #231815;
      }

      .cls-5, .cls-6 {
        stroke-width: 0px;
      }

      .cls-3 {
        stroke-width: 15px;
      }

      .cls-3, .cls-4 {
        stroke: #000;
      }

      .cls-6 {
        fill: #fff;
      }

      .cls-4 {
        fill: #000;
      }

      .cls-7 {
        display: none;
      }
    </style>
  </defs>
  <g id="_レイヤー_1-2" data-name=" レイヤー 1-2" class="cls-7">
    <g>
      <g>
        <path class="cls-1" d="M78.2,318.7v75.6h129.8c-54.2-3.8-101.4-32.9-129.8-75.6h0Z"/>
        <path class="cls-1" d="M78.2,110.9v19.8c4.6-7,9.8-13.6,15.4-19.8,0,0-15.4,0-15.4,0Z"/>
        <path class="cls-1" d="M361.6,110.9h-15.4c5.6,6.2,10.7,12.8,15.4,19.8,0,0,0-19.8,0-19.8Z"/>
        <path class="cls-1" d="M361.6,318.7c-28.4,42.7-75.6,71.9-129.8,75.6h129.8v-75.6h0Z"/>
        <path class="cls-1" d="M390,224.7c0-34.8-10.4-67.1-28.4-94v188.1c17.9-26.9,28.4-59.3,28.4-94h0Z"/>
        <path class="cls-1" d="M219.9,394.8c4,0,8-.2,12-.4h-23.9c4,.3,8,.4,12,.4h-.1Z"/>
        <path class="cls-1" d="M49.8,224.7c0,34.8,10.4,67.1,28.4,94v-188c-17.9,26.9-28.3,59.3-28.4,94Z"/>
        <path class="cls-1" d="M219.9,54.6c-50.2,0-95.2,21.7-126.4,56.3h252.8c-31.1-34.6-76.2-56.3-126.4-56.3h0Z"/>
        <path class="cls-1" d="M361.6,318.7v-188c-4.6-7-9.8-13.6-15.4-19.8H93.5c-5.6,6.2-10.7,12.8-15.4,19.8v188.1c28.4,42.7,75.6,71.9,129.8,75.6h23.9c54.2-3.8,101.4-32.9,129.8-75.6h0Z"/>
      </g>
      <line class="cls-1" x1="78.2" y1="110.9" x2="361.6" y2="394.4"/>
      <line class="cls-1" x1="78.2" y1="394.4" x2="361.6" y2="110.9"/>
    </g>
    <line class="cls-1" x1="78.2" y1="252.6" x2="361.6" y2="252.6"/>
    <line class="cls-1" x1="219.9" y1="110.9" x2="219.9" y2="394.8"/>
  </g>
  <g id="_レイヤー_2" data-name=" レイヤー 2" class="cls-7">
    <ellipse class="cls-2" cx="219.9" cy="132.8" rx="16.5" ry="18.7"/>
    <ellipse class="cls-2" cx="220.1" cy="180.3" rx="39.1" ry="17.8"/>
    <ellipse class="cls-2" cx="220.1" cy="202.9" rx="20.8" ry="46"/>
    <ellipse class="cls-2" cx="220.1" cy="156" rx="8.2" ry="16.9"/>
    <ellipse class="cls-2" cx="220" cy="257.1" rx="22.8" ry="30.4"/>
    <ellipse class="cls-2" cx="220.1" cy="287.5" rx="22.7" ry="50.6"/>
    <ellipse class="cls-2" cx="220" cy="347.7" rx="18.2" ry="42.2"/>
    <ellipse class="cls-2" cx="220.1" cy="385.6" rx="33.9" ry="8.5"/>
    <ellipse class="cls-2" cx="271.2" cy="178.5" rx="39.2" ry="8.4"/>
    <ellipse class="cls-2" cx="168.8" cy="178.1" rx="39.2" ry="8"/>
    <ellipse class="cls-2" cx="325.4" cy="176.8" rx="32.4" ry="6.6"/>
    <ellipse class="cls-2" cx="114.6" cy="178.1" rx="32.4" ry="6.6"/>
    <ellipse class="cls-2" cx="219.9" cy="167.1" rx="18.9" ry="8.1"/>
    <ellipse class="cls-2" cx="219.9" cy="139.1" rx="14.7" ry="15.4"/>
    <ellipse class="cls-2" cx="93.5" cy="176.8" rx="11.7" ry="8"/>
    <ellipse class="cls-2" cx="346.3" cy="176.8" rx="11.7" ry="8"/>
  </g>
  <circle class="cls-6" cx="220" cy="224.9" r="206.4"/>
  <g id="_レイヤー_1のコピー" data-name=" レイヤー 1のコピー">
    <path class="cls-3" d="M207.9,394.4H78.2v-75.6c28.4,42.7,75.6,71.9,129.8,75.6h-.1ZM78.2,110.9v19.8c4.6-7,9.8-13.6,15.4-19.8,0,0-15.4,0-15.4,0ZM361.6,110.9h-15.4c5.6,6.2,10.7,12.8,15.4,19.8,0,0,0-19.8,0-19.8ZM361.6,318.7c-28.4,42.7-75.6,71.9-129.8,75.6h129.8v-75.6h0ZM390,224.7c0-34.8-10.4-67.1-28.4-94v188.1c17.9-26.9,28.4-59.3,28.4-94h0ZM219.9,394.8c4,0,8-.2,12-.4h-23.9c4,.3,8,.4,12,.4h-.1ZM49.8,224.7c0,34.8,10.4,67.1,28.4,94v-188c-17.9,26.9-28.3,59.3-28.4,94ZM219.9,54.6c-50.2,0-95.2,21.7-126.4,56.3h252.8c-31.1-34.6-76.2-56.3-126.4-56.3h0ZM361.6,318.7v-188c-4.6-7-9.8-13.6-15.4-19.8H93.5c-5.6,6.2-10.7,12.8-15.4,19.8v188.1c28.4,42.7,75.6,71.9,129.8,75.6h23.9c54.2-3.8,101.4-32.9,129.8-75.6h0ZM78.2,110.9l283.5,283.5M78.2,394.4L361.6,110.9M219.9,110.9v283.9"/>
  </g>
  <g id="_レイヤー_2のコピー" data-name=" レイヤー 2のコピー">
    <ellipse class="cls-4" cx="219.9" cy="135.6" rx="22.6" ry="24.7"/>
    <rect class="cls-4" x="211" y="147.5" width="17.7" height="24.8"/>
    <rect class="cls-4" x="199.8" y="172.3" width="40.1" height="219"/>
    <rect class="cls-4" x="72.4" y="172.3" width="283.5" height="16.3"/>
  </g>
  <g id="_レイヤー_5" data-name=" レイヤー 5" class="cls-7">
    <g>
      <path class="cls-5" d="M67.5,453.5h6.2v-40.3h-6.2v-1.7h21.2v1.6h-6.1v18.8h18.2v-18.8h-6.1v-1.7h21.1v1.6h-6.2v40.3h6.1v1.7h-21v-1.6h6.1v-19.7h-18.2v19.6h6.2v1.7h-21.2v-1.6h-.1Z"/>
      <path class="cls-5" d="M118.4,429.5v-1.6c4.3,0,7.4-.3,10.4-1.2l.8.6c-.2,3.3-.3,6.7-.3,12v7.4c0,4.7,1.1,6.3,4.1,6.3s3.9-.8,6.4-3.6v-19.9h-4.1v-1.6c5,0,7.7-.3,11-1.2l.8.5v26.3h3.5v1.6c-5,.1-6.5.3-10.5,1.1l-.7-.5v-4.3c-3.6,3.6-5.9,4.6-9.3,4.6s-6.4-1.6-7.9-4.2c-1-1.7-1.3-3.4-1.3-7.1l.3-15.2h-3.4.2Z"/>
      <path class="cls-5" d="M154.2,453.5h4.2v-24.1h-3.8v-1.6c5.5,0,7.4-.2,10.8-1.2l.8.6v4.9c1.2-1.2,1.6-1.7,2.2-2.2,2.3-1.9,4.7-3.1,7.2-3.1s5,1.2,6.7,3.5c.4.5.7,1,1.4,2.1.9-1.1,1.3-1.5,1.7-1.9,2.1-2.2,5.8-3.7,8.9-3.7s5.8,1.6,7.4,4.2c1,1.7,1.3,3.1,1.3,5.9s-.2,5.5-.2,8.8v7.7h3.8v1.7h-15.4v-1.6h3.7v-17.4c0-2.5-.4-3.8-1.3-4.7-.8-.8-1.8-1.2-2.9-1.2s-3.7.9-5,2c-1,1-1.5,1.8-1.5,2.9v18.2h3.6v1.7h-14.9v-1.6h3.6v-18.3c0-3.5-1.3-5.3-3.7-5.3s-2.8.8-3.8,1.9c-1.4,1.6-2.6,3.7-2.6,4.7v17h3.5v1.7h-15.7v-1.6h0Z"/>
      <path class="cls-5" d="M224.3,433.2c0-2.9-1.6-4.5-4.3-4.5s-4.3,1-4.3,2,.1.7.7,1.3c.7.8.8,1.1.8,1.9,0,1.7-1.2,3-2.9,3s-3.2-1.5-3.2-3.4c0-3.8,4.7-6.5,11.2-6.5s6,.9,7.6,2.8c1.1,1.4,1.6,3.2,1.6,6.5v14.4c0,1.1.7,2.2,1.7,2.2s1.2-.4,2.6-2.5l1.3.7c-2,3.5-4,4.8-7.1,4.8s-3.7-.7-4.5-1.7c-.4-.5-.8-1.6-1-2.3-2.8,3-5,4.2-8.2,4.2s-7.4-2.8-7.4-6.5,3.2-7,8.6-8.4c2.1-.5,3.3-.7,6.8-1.1v-6.7h0v-.2h0ZM224.3,441.4c-2.5.4-3.5.7-4.7,1.1-2.7,1.1-4.1,3-4.1,5.6s1.6,4.6,4.1,4.6,3.6-1.1,4.8-3.1v-8.3h-.1Z"/>
      <path class="cls-5" d="M239.3,453.5h4.2v-24.1h-3.7v-1.6c4.5,0,7.6-.3,10.7-1.2l.8.6v4.3c2.5-2.5,5.8-4.6,8.9-4.6s6.1,1.1,7.6,3c1.4,1.6,1.8,3.7,1.8,8.5v15h3.8v1.7h-15.4v-1.6h3.3v-17.8c0-2.9-.3-4.1-1.2-4.9-.7-.7-1.6-1-2.5-1-1.4,0-3.2.7-4.6,1.8-1,.7-1.7,1.4-1.7,2v19.7h3.1v1.7h-15.2v-1.6h0Z"/>
      <path class="cls-5" d="M275.7,453.5h4.2v-24.1h-3.8v-1.5c5.8-.1,8-.4,11.2-1.3l.8.5c-.1,2.2-.2,4.3-.2,6.7v19.7h3.8v1.7h-15.9v-1.6h0ZM284,411.6c2.3,0,4.3,2,4.3,4.3s-1.8,4-4.2,4-4.1-1.8-4.1-4.1,1.7-4.2,4.1-4.2h0Z"/>
      <path class="cls-5" d="M295.9,454.6c.4-1.6.5-2.7.5-5.8v-3.3h1.6c.1,2.5.6,3.8,2,5.5,1.7,2.2,3.8,3.2,6.4,3.2s5.9-1.9,5.9-4.4-1.4-3.2-5.5-4.4c-3.6-1-6-2-7.3-3.1-1.6-1.3-2.6-3.7-2.6-6.2,0-5.3,4.1-9.2,9.5-9.2s3.3.4,6.8,2l1.2-1.4.8.2c-.2,2.2-.2,3.3-.2,4.6v3.5l-1.4.2c-.4-2.5-.7-3.6-1.6-4.8-1.2-1.6-3.4-2.7-5.6-2.7s-5.2,1.7-5.2,4.1,1.4,3.5,6.4,5c3.9,1.2,5.2,1.7,6.7,3,1.6,1.3,2.6,3.6,2.6,6.1,0,5.5-4.3,9.2-10.6,9.2s-4.6-.5-8-2.6l-1.3,1.6-1-.3h0Z"/>
      <path class="cls-5" d="M320.2,428.2c3.4-.9,5-1.7,6.7-3.4s2.8-3.7,3.6-7.3h1.1c0,2.3-.2,4.9-.2,6.7v3.7h6.3v1.7h-6.4v15.1c0,4.3,0,6,.4,7,.5,1.3,1.4,1.9,2.6,1.9s2.7-.6,4.7-2.3l1.1,1.1c-2.6,2.6-5,3.6-8.3,3.6s-6.4-1.4-7.7-4c-.7-1.3-1-2.6-1-5v-4.6l.2-12.7h-3.3v-1.4h.2,0Z"/>
      <path class="cls-5" d="M370.7,448.5c-3.1,5.5-6.5,7.6-12.6,7.6s-14.8-6-14.8-14.4,6.4-14.7,14.8-14.7,7.4,1.6,10,4.4c1.9,2.2,3,4.7,3,6.7s-.2,1-.5,1.2c-.4.2-1.6.3-7.6.3h-11.3v1.2c0,9.1,2.7,13.1,8.8,13.1s6-1.4,8.9-6.1l1.3.8h0ZM363.6,438c-.1-6.7-1.7-9.6-5.4-9.6s-5.9,3.2-6.4,9.6h11.8Z"/>
    </g>
  </g>
</svg>